{"title":"Atlantis S01E07 The Rules of Engagement HDTV 480p x264 AAC E-Sub","uid":9203057,"size":143946833,"categoryP":"video","categoryS":"tv_shows","magnet":"?xt=urn:btih:b430e51f07ba6af14d1d6a6715b3ddb311ec113f&amp;dn=Atlantis+S01E07+The+Rules+of+Engagement+HDTV+480p+x264+AAC+E-Sub&amp;tr=udp%3A%2F%2Ftracker.openbittorrent.com%3A80&amp;tr=udp%3A%2F%2Fopen.demonii.com%3A1337&amp;tr=udp%3A%2F%2Ftracker.coppersurfer.tk%3A6969&amp;tr=udp%3A%2F%2Fexodus.desync.com%3A6969","seeders":1,"leechers":4,"uploader":"canc232","files":1,"time":1384634125,"description":"Atlantis S01E07 The Rules of Engagement HDTV 480p x264 AAC E-Subs [GWC]\n\n\n\nSCREENS:\n &lt;a href=&quot;\nhttp://imageshack.us/a/img833/5446/jxba.jpg&quot; rel=&quot;nofollow&quot; target=&quot;_NEW&quot;&gt;\nhttp://imageshack.us/a/img833/5446/jxba.jpg&lt;/a&gt; &lt;a href=&quot;\nhttp://imageshack.us/a/img9/7952/lwwa.jpg&quot; rel=&quot;nofollow&quot; target=&quot;_NEW&quot;&gt;\nhttp://imageshack.us/a/img9/7952/lwwa.jpg&lt;/a&gt; &lt;a href=&quot;\nhttp://imageshack.us/a/img19/6383/9zt0.jpg&quot; rel=&quot;nofollow&quot; target=&quot;_NEW&quot;&gt;\nhttp://imageshack.us/a/img19/6383/9zt0.jpg&lt;/a&gt;\n\n\n\nMEDIA INFO :\n\nGeneral \nFormat : MPEG-4 \nFormat profile : Base Media\nFile size : 137 MiB \nDuration : 43mn 56s \nOverall bit rate mode : Variable \nOverall bit rate : 437 Kbps\n\nVideo \nFormat : AVC \nFormat profile : &lt;a class=&quot;__cf_email__&quot; href=&quot;/cdn-cgi/l/email-protection&quot; data-cfemail=&quot;7139181619313d425f41&quot;&gt;[email&amp;#160;protected]&lt;/a&gt;&lt;script cf-hash='f9e31' type=&quot;text/javascript&quot;&gt;\n/* &lt;![CDATA[ */!function(){try{var t=&quot;currentScript&quot;in document?document.currentScript:function(){for(var t=document.getElementsByTagName(&quot;script&quot;),e=t.length;e--;)if(t[e].getAttribute(&quot;cf-hash&quot;))return t[e]}();if(t&amp;&amp;t.previousSibling){var e,r,n,i,c=t.previousSibling,a=c.getAttribute(&quot;data-cfemail&quot;);if(a){for(e=&quot;&quot;,r=parseInt(a.substr(0,2),16),n=2;a.length-n;n+=2)i=parseInt(a.substr(n,2),16)^r,e+=String.fromCharCode(i);e=document.createTextNode(e),c.parentNode.replaceChild(e,c)}}}catch(u){}}();/* ]]&gt; */&lt;/script&gt; \nFormat settings, CABAC : Yes \nFormat settings, ReFrames : 4 frames \nDuration : 43mn 56s \nBit rate : 373 Kbps \nWidth : 720 pixels \nHeight : 404 pixels \nDisplay aspect ratio : 16:9 \nFrame rate : 25.000 fps  \nStream size : 117 MiB (85%) \nTitle : Atlantis S01E07 The Rules of Engagement HDTV 480p x264 AAC E-Subs [GWC] \nWriting library : x264 core\n\nAudio \nFormat : AAC  \nFormat profile : HE-AAC / LC \nCodec ID : 40 Duration : 43mn 56s \nChannel(s) : 2 channels\nSampling rate : 48.0 KHz / 24.0 KHz\nStream size : 18.9 MiB \nLanguage : English \n\nText \nCodec ID : tx3g \nDuration : 43mn 47s \nTitle : English Subtitle by Stubbie \nLanguage : English","torrent":{"xt":"urn:btih:b430e51f07ba6af14d1d6a6715b3ddb311ec113f","amp;dn":"Atlantis+S01E07+The+Rules+of+Engagement+HDTV+480p+x264+AAC+E-Sub","amp;tr":["udp%3A%2F%2Ftracker.openbittorrent.com%3A80","udp%3A%2F%2Fopen.demonii.com%3A1337","udp%3A%2F%2Ftracker.coppersurfer.tk%3A6969","udp%3A%2F%2Fexodus.desync.com%3A6969"],"infoHash":"b430e51f07ba6af14d1d6a6715b3ddb311ec113f","infoHashBuffer":{"type":"Buffer","data":[180,48,229,31,7,186,106,241,77,29,106,103,21,179,221,179,17,236,17,63]},"announce":[],"urlList":[]}}